<svg xmlns="http://www.w3.org/2000/svg" viewBox="0 0 504.01 503.9"><g data-name="Слой 2"><path d="M500.49 51.48C476.93 27.91 436.39 16 380 16c-49.92 0-128.18 11.89-191.07 21.44C151.68 43.08 119.5 48 108 48 65.63 48 20.92 4 20.47 3.5 13.39-4.1-.34 1.6 0 12v192c-.33 10.35 13.34 16.05 20.47 8.49C20.93 212 65.64 168 108 168c22.82 0 77.88 7.91 131.12 15.56 21.87 3.14 43.29 6.22 62.93 8.84 11.05 14 19.69 30.4 26.43 47.6H316a12 12 0 00-12 12v48a12 12 0 0012 12h31a470.74 470.74 0 015 83.34A12 12 0 00363.38 408H374.64c4.8 6.36 2.83 10.76-1.73 20.89-7 15.65-17.67 39.31 14.61 71.59a12 12 0 0017-17c-20.57-20.57-16-30.73-9.69-44.78 3.6-8 8.4-18.69 5.77-30.73H412a12 12 0 0012-11.15l14.45-202.24c26.86-5.65 47.64-15.71 62.06-30.13A12 12 0 00504 156V60a12 12 0 00-3.51-8.52zM380 128a20 20 0 1120-20 20 20 0 01-20 20zM24 37.91C41.35 51 67.81 67.31 96 71.13v73.67c-28.2 3.82-54.66 20.11-72 33.22zm96 106.5V71.24c16.27-1.55 41.92-5.45 72.53-10.1 57.17-8.68 127.18-19.32 175.47-21v25.5a44 44 0 000 84.65v25.23c-28.52-1.82-77.69-8.88-125.47-15.75-48.62-7-94.9-13.63-122.53-15.37zM328 288v-24h8.61c2.32 8 4.3 16 6 24zm72.82 96h-24.54a508.12 508.12 0 00-4.58-69c-6.55-48.11-19.23-87.86-37.79-118.63C353 198.59 369 200 380 200a331.8 331.8 0 0034.09-1.66zM480 150.71c-13.33 11.31-39 23.35-88 25v-25.42a44 44 0 000-84.65V40.18c49 1.7 74.67 13.73 88 25z" fill="#333" data-name="30-hair dryer"/></g></svg>