<svg xmlns="http://www.w3.org/2000/svg" viewBox="0 0 512 481.61"><defs><style>.cls-1{fill:#999998}</style></defs><g id="Слой_2" data-name="Слой 2"><g id="Capa_1" data-name="Capa 1"><path class="cls-1" d="M497 179.61h-15v-15a45.05 45.05 0 00-36.8-44.23 54.86 54.86 0 006-18.85A90.24 90.24 0 00421.4 22a88.7 88.7 0 00-75.55-20.38 15 15 0 00-8.37 24.73c6.67 7.47 3.94 16 2.45 19.32-2.87 6.43-10.05 13.94-20.8 13.94H135a75.1 75.1 0 00-73.88 62.2A45.07 45.07 0 0030 164.61v15H15a15 15 0 00-15 15v212a75.09 75.09 0 0075 75h362a75.08 75.08 0 0075-75v-212a15 15 0 00-15-15zm-362-90h184.13a53.08 53.08 0 0048.19-31.7 49.2 49.2 0 003.93-27.31 58.43 58.43 0 0130.38 14 60.27 60.27 0 0119.86 53.1 25.25 25.25 0 01-25 21.91H92.59a45.09 45.09 0 0142.41-30zm-75 75a15 15 0 0115-15h362a15 15 0 0115 15v15H60zm422 242a45 45 0 01-45 45H75a45 45 0 01-45-45v-197h452z"/><path class="cls-1" d="M407 239.61H105a15 15 0 00-15 15v152a15 15 0 0015 15h302a15 15 0 0015-15v-152a15 15 0 00-15-15zm-15 152H120v-122h272z"/></g></g></svg>