<svg xmlns="http://www.w3.org/2000/svg" viewBox="0 0 512 512"><defs><style>.cls-1{fill:#999998}</style></defs><g id="Слой_2" data-name="Слой 2"><g id="Capa_1" data-name="Capa 1"><path class="cls-1" d="M145 242h-10V123.21c0-17.67-8.68-38-23.21-54.32C96.82 52.05 77.89 42 61.14 42c-10.62 0-20.08 4.07-26.65 11.46C28.24 60.5 25 70 25 81v161H15a15 15 0 00-15 15v200a55.06 55.06 0 0055 55h50a55.06 55.06 0 0055-55V257a15 15 0 00-15-15zM30 272h100v30H30zM55 81v-.09c0-3.39.68-6.14 1.92-7.53.33-.38 1.23-1.38 4.22-1.38 6.61 0 17.9 5.2 28.23 16.82C98.86 99.5 105 113 105 123.21V242H55zm75 376a25 25 0 01-25 25H55a25 25 0 01-25-25V332h100zM512 15a15 15 0 00-15-15H357a15 15 0 00-15 15v48a198.29 198.29 0 0040 119.16V467a45 45 0 0090 0V182.13A198.29 198.29 0 00512 63zm-70 452a15 15 0 01-30 0V192h30zm40-404a168.23 168.23 0 01-32.4 99h-45.2A168.23 168.23 0 01372 63V30h40v67a15 15 0 0030 0V30h40zM295 242h-50a55.06 55.06 0 00-55 55v200a15 15 0 0015 15h130a15 15 0 0015-15V297a55.06 55.06 0 00-55-55zm-50 30h50a25 25 0 0125 25v125H220V297a25 25 0 0125-25zm-25 210v-30h100v30z"/></g></g></svg>