<svg xmlns="http://www.w3.org/2000/svg" viewBox="0 0 512 512"><g data-name="Слой 2"><path d="M467 254a44.82 44.82 0 00-27.88 9.71l-36.8-22.86 37.32-23.19a45 45 0 10-16.4-25.13l-49.37 30.67-5.53-3.44v-67.27A152.48 152.48 0 00215.86 0h-.35A156.49 156.49 0 0059.37 156.49v213.72A115.6 115.6 0 000 471.13V512h461.2v-48.68a108 108 0 00-92.86-106.82V255.08l54.73 34A45 45 0 10467 254zm0-87.1a15 15 0 11-15 15 15 15 0 0115-15zM30 471.13a85.61 85.61 0 0185.51-85.52h55.06a74.94 74.94 0 0096 26.64 112.19 112.19 0 0071.8 40.18V482H124v-43.56H94V482H30zM143.22 227v-64.8h25.48a72.52 72.52 0 0172.43 72.44v77.96a86.94 86.94 0 01-13.71.92c-46.43-.58-84.2-39.38-84.2-86.49zm83.83 116.48a116 116 0 0014.09-.67 111.5 111.5 0 009.54 43.66 44.88 44.88 0 01-54.9-17.13l10.33-28.05a113.71 113.71 0 0020.94 2.19zm204.16 119.84V482h-62.87v-95.09a78 78 0 0162.87 76.41zm-92.87-41.25a82.35 82.35 0 01-67.21-80.84V234.67A102.55 102.55 0 00168.7 132.24h-55.48V227a117 117 0 0064.49 104.6l-8.83 24h-53.37a115.48 115.48 0 00-26.14 3V156.49C89.37 86.89 146 30.15 215.58 30h.28a122.48 122.48 0 01122.48 122.49v48.64l-27.36-17-15.82 25.48 43.18 26.82v185.64zM467 314.06a15 15 0 1115-15 15 15 0 01-15 15z" fill="#999998" data-name="Capa 1"/></g></svg>