<svg width="20" height="20" xmlns="http://www.w3.org/2000/svg" viewBox="0 0 97.39 97.39"><g data-name="Слой 2"><path d="M12.5 0h72.39a12.2 12.2 0 0112.5 12.5v72.39a12.2 12.2 0 01-12.5 12.5H12.5A12.2 12.2 0 010 84.89V12.5A12.2 12.2 0 0112.5 0zM71 10.82a4.4 4.4 0 00-4.39 4.39V25.7A4.41 4.41 0 0071 30.09h11a4.4 4.4 0 004.38-4.39V15.21A4.39 4.39 0 0082 10.82zm15.39 30.37h-8.57a28.51 28.51 0 011.25 8.35c0 16.2-13.56 29.34-30.28 29.34S18.52 65.74 18.52 49.54a28.46 28.46 0 011.25-8.35h-8.95v41.14a3.89 3.89 0 003.88 3.87h67.82a3.88 3.88 0 003.87-3.87V41.19zm-37.6-11.66c-10.8 0-19.56 8.49-19.56 19S38 67.44 48.79 67.44 68.35 59 68.35 48.49s-8.76-18.96-19.56-18.96z" fill="#fff" data-name="Capa 1"/></g></svg>