<svg aria-hidden="true" style="position: absolute; width: 0; height: 0; overflow: hidden;" version="1.1" xmlns="http://www.w3.org/2000/svg" xmlns:xlink="http://www.w3.org/1999/xlink">
<defs>
<symbol id="icon-arrow-big" viewBox="0 0 32 32">
<path d="M8.854 0.204c-0.126-0.126-0.3-0.204-0.491-0.204-0.384 0-0.695 0.311-0.695 0.695 0 0.192 0.078 0.366 0.204 0.491l14.801 14.803-14.803 14.801c-0.136 0.127-0.221 0.308-0.221 0.509 0 0.384 0.311 0.695 0.695 0.695 0.192 0 0.366-0.078 0.492-0.204v0l0.017-0.018 15.294-15.294c0.126-0.126 0.203-0.3 0.203-0.492s-0.078-0.366-0.203-0.492v0z"></path>
<path d="M8.362 31.979c-0.001 0-0.001 0-0.002 0-0.384 0-0.695-0.311-0.695-0.695 0-0.193 0.078-0.367 0.205-0.493l14.803-14.801-14.803-14.802c-0.119-0.125-0.193-0.294-0.193-0.481 0-0.384 0.312-0.696 0.696-0.696 0.187 0 0.356 0.074 0.481 0.193l15.292 15.294c0.126 0.126 0.203 0.3 0.203 0.491s-0.078 0.366-0.203 0.491v0l-15.292 15.294c-0.126 0.126-0.3 0.205-0.492 0.205h-0z"></path>
</symbol>
<symbol id="icon-arrow-small" viewBox="0 0 32 32">
<path fill="#787878" style="fill: var(--color1, #787878)" d="M7.862 15.498c-0.126 0.126-0.203 0.3-0.203 0.492s0.078 0.366 0.203 0.492v0l15.311 15.311c0.126 0.126 0.3 0.204 0.492 0.204 0.384 0 0.695-0.311 0.695-0.695 0-0.201-0.085-0.381-0.221-0.508l-0-0-14.803-14.801 14.801-14.803c0.126-0.126 0.204-0.299 0.204-0.491 0-0.384-0.311-0.695-0.695-0.695-0.192 0-0.366 0.078-0.491 0.204v0z"></path>
<path fill="#787878" style="fill: var(--color1, #787878)" d="M23.155 31.774l-15.294-15.294c-0.126-0.126-0.203-0.3-0.203-0.491s0.078-0.366 0.203-0.491v0l15.294-15.294c0.125-0.119 0.294-0.193 0.481-0.193 0.384 0 0.696 0.312 0.696 0.696 0 0.187-0.074 0.356-0.193 0.481l-14.803 14.802 14.803 14.801c0.126 0.126 0.203 0.3 0.203 0.491 0 0.384-0.311 0.695-0.695 0.695-0.192 0-0.366-0.078-0.492-0.204v0z"></path>
</symbol>
<symbol id="icon-arrow" viewBox="0 0 32 32">
<path fill="#6c6259" style="fill: var(--color2, #6c6259)" d="M31.783 8.854c0.126-0.126 0.204-0.3 0.204-0.491 0-0.384-0.311-0.695-0.695-0.695-0.192 0-0.366 0.078-0.491 0.204l-14.803 14.801-14.801-14.803c-0.128-0.14-0.311-0.228-0.515-0.228-0.384 0-0.695 0.311-0.695 0.695 0 0.195 0.081 0.372 0.21 0.498l0 0 0.018 0.017 15.293 15.294c0.126 0.125 0.3 0.203 0.491 0.203s0.366-0.078 0.491-0.203l-0 0z"></path>
<path fill="#6c6259" style="fill: var(--color2, #6c6259)" d="M0.008 8.362c0-0.001 0-0.001 0-0.002 0-0.384 0.311-0.695 0.695-0.695 0.193 0 0.367 0.078 0.493 0.205l14.801 14.803 14.802-14.803c0.127-0.133 0.305-0.215 0.503-0.215 0.384 0 0.696 0.312 0.696 0.696 0 0.198-0.082 0.376-0.215 0.503l-15.294 15.292c-0.126 0.126-0.3 0.203-0.491 0.203s-0.366-0.078-0.491-0.203v0l-15.294-15.292c-0.126-0.126-0.205-0.3-0.205-0.492v-0z"></path>
</symbol>
<symbol id="icon-fb" viewBox="0 0 32 32">
<path fill="#fff" style="fill: var(--color3, #fff)" d="M24 0h-4.15c-4.667 0-7.687 3.093-7.687 7.887v3.633h-4.163c-0.368 0-0.667 0.298-0.667 0.667v0 5.257c0 0.368 0.298 0.667 0.667 0.667v0h4.163v13.277c0 0.368 0.298 0.667 0.667 0.667v0h5.437c0.368 0 0.667-0.298 0.667-0.667v0-13.29h4.873c0.368 0 0.667-0.298 0.667-0.667v0-5.257c0-0.001 0-0.001 0-0.002 0-0.179-0.073-0.341-0.19-0.458v0c-0.119-0.118-0.282-0.192-0.463-0.193h-4.9v-3.080c0-1.483 0.353-2.233 2.283-2.233h2.797c0.368 0 0.667-0.298 0.667-0.667v0-4.873c0-0.368-0.298-0.667-0.667-0.667v0z"></path>
</symbol>
<symbol id="icon-icon3" viewBox="0 0 32 32">
<path d="M31.783 3.269c-1.496-1.497-4.071-2.253-7.652-2.253-3.17 0-8.14 0.755-12.134 1.362-2.366 0.358-4.409 0.671-5.139 0.671-2.691 0-5.53-2.794-5.559-2.826-0.45-0.483-1.322-0.121-1.3 0.54v12.193c-0.021 0.657 0.847 1.019 1.3 0.539 0.029-0.031 2.869-2.825 5.559-2.825 1.449 0 4.946 0.502 8.327 0.988 1.389 0.199 2.749 0.395 3.996 0.561 0.702 0.889 1.25 1.931 1.678 3.023h-0.793c-0.421 0-0.762 0.341-0.762 0.762v0 3.048c0 0.421 0.341 0.762 0.762 0.762v0h1.969c0.21 1.331 0.33 2.866 0.33 4.429 0 0.303-0.005 0.606-0.014 0.907l0.001-0.044c-0.001 0.013-0.001 0.028-0.001 0.043 0 0.407 0.32 0.74 0.722 0.761l0.002 0h0.715c0.305 0.404 0.18 0.683-0.11 1.327-0.445 0.994-1.122 2.496 0.928 4.546 0.138 0.138 0.329 0.224 0.54 0.224 0.422 0 0.763-0.342 0.763-0.763 0-0.211-0.085-0.402-0.224-0.54v0c-1.306-1.306-1.016-1.951-0.615-2.844 0.229-0.508 0.533-1.187 0.366-1.951h0.724c0.001 0 0.001 0 0.002 0 0.402 0 0.731-0.311 0.76-0.706l0-0.003 0.918-12.843c1.706-0.359 3.025-0.998 3.941-1.913 0.137-0.138 0.221-0.327 0.222-0.537v-6.096c0-0.001 0-0.002 0-0.002 0-0.21-0.085-0.401-0.223-0.539v0zM24.132 8.129c-0.701 0-1.27-0.569-1.27-1.27s0.569-1.27 1.27-1.27c0.701 0 1.27 0.569 1.27 1.27v0c0 0.701-0.569 1.27-1.27 1.27v0zM1.524 2.407c1.102 0.831 2.782 1.867 4.572 2.11v4.678c-1.791 0.243-3.471 1.277-4.572 2.11zM7.621 9.171v-4.647c1.033-0.098 2.662-0.346 4.606-0.641 3.631-0.551 8.077-1.227 11.143-1.334v1.619c-1.182 0.344-2.031 1.417-2.031 2.688s0.849 2.344 2.011 2.683l0.020 0.005v1.602c-1.811-0.116-4.934-0.564-7.968-1-3.088-0.445-6.027-0.866-7.781-0.976zM20.83 18.289v-1.524h0.547c0.147 0.508 0.273 1.016 0.381 1.524zM25.454 24.386h-1.558c0-0.017 0-0.038 0-0.059 0-1.525-0.106-3.024-0.31-4.493l0.019 0.17c-0.416-3.055-1.221-5.58-2.4-7.534 1.212 0.141 2.228 0.231 2.927 0.231 0.017 0 0.038 0 0.059 0 0.742 0 1.474-0.038 2.196-0.113l-0.090 0.008zM30.482 9.571c-0.847 0.718-2.477 1.483-5.588 1.588v-1.614c1.182-0.344 2.031-1.417 2.031-2.688s-0.849-2.344-2.011-2.683l-0.020-0.005v-1.617c3.112 0.108 4.742 0.872 5.588 1.588z"></path>
</symbol>
<symbol id="icon-icon1" viewBox="0 0 32 32">
<path fill="#999998" style="fill: var(--color4, #999998)" d="M31.063 12.163h-0.938v-0.938c-0.002-1.371-0.984-2.513-2.282-2.762l-0.018-0.003c0.185-0.341 0.318-0.739 0.373-1.161l0.002-0.017c0.031-0.222 0.049-0.479 0.049-0.739 0-1.682-0.737-3.193-1.905-4.226l-0.006-0.005c-0.971-0.855-2.253-1.377-3.657-1.377-0.377 0-0.745 0.038-1.101 0.109l0.035-0.006c-0.437 0.086-0.762 0.465-0.762 0.921 0 0.24 0.090 0.46 0.239 0.626l-0.001-0.001c0.417 0.467 0.246 1 0.153 1.208-0.179 0.402-0.628 0.871-1.3 0.871h-11.508c-2.305 0.003-4.22 1.667-4.613 3.859l-0.004 0.028c-1.137 0.378-1.943 1.432-1.945 2.675v0.938h-0.938c-0.518 0-0.938 0.42-0.938 0.938v0 13.25c0.003 2.588 2.1 4.684 4.687 4.688h22.625c2.588-0.003 4.685-2.1 4.688-4.687v-13.25c0-0.518-0.42-0.938-0.938-0.938v0zM8.438 6.538h11.508c1.339-0.010 2.488-0.812 3.003-1.96l0.008-0.021c0.174-0.374 0.276-0.812 0.276-1.274 0-0.153-0.011-0.303-0.033-0.45l0.002 0.017c0.736 0.108 1.385 0.421 1.903 0.878l-0.004-0.003c0.783 0.694 1.274 1.701 1.274 2.824 0 0.175-0.012 0.346-0.035 0.514l0.002-0.020c-0.107 0.777-0.765 1.368-1.562 1.369h-18.994c0.399-1.1 1.434-1.873 2.65-1.875h0zM3.75 11.226c0-0.518 0.42-0.938 0.938-0.938v0h22.625c0.518 0 0.938 0.42 0.938 0.938v0 0.938h-24.5zM30.125 26.351c0 1.553-1.259 2.813-2.813 2.813v0h-22.625c-1.553 0-2.813-1.259-2.813-2.813v0-12.313h28.25z"></path>
<path fill="#999998" style="fill: var(--color4, #999998)" d="M25.438 15.913h-18.875c-0.518 0-0.938 0.42-0.938 0.938v0 9.5c0 0.518 0.42 0.938 0.938 0.938v0h18.875c0.518 0 0.938-0.42 0.938-0.938v0-9.5c0-0.518-0.42-0.938-0.938-0.938v0zM24.5 25.413h-17v-7.625h17z"></path>
</symbol>
<symbol id="icon-icon2" viewBox="0 0 32 32">
<path fill="#999998" style="fill: var(--color4, #999998)" d="M9.063 15.125h-0.625v-7.424c0-1.104-0.543-2.375-1.451-3.395-0.936-1.053-2.119-1.681-3.166-1.681-0.664 0-1.255 0.254-1.666 0.716-0.391 0.44-0.593 1.034-0.593 1.721v10.063h-0.625c-0.518 0-0.938 0.42-0.938 0.938v0 12.5c0.002 1.898 1.54 3.435 3.437 3.438h3.125c1.898-0.002 3.435-1.54 3.438-3.437v-12.5c0-0.518-0.42-0.938-0.938-0.938v0zM1.875 17h6.25v1.875h-6.25zM3.438 5.063v-0.006c0-0.212 0.042-0.384 0.12-0.471 0.021-0.024 0.077-0.086 0.264-0.086 0.413 0 1.119 0.325 1.764 1.051 0.593 0.668 0.977 1.511 0.977 2.149v7.424h-3.125zM8.125 28.563c0 0.863-0.7 1.563-1.563 1.563v0h-3.125c-0.863 0-1.563-0.7-1.563-1.563v0-7.813h6.25zM32 0.938c0-0.518-0.42-0.938-0.938-0.938v0h-8.75c-0.518 0-0.938 0.42-0.938 0.938v0 3c0.004 2.811 0.943 5.401 2.522 7.478l-0.022-0.030v17.803c0 1.553 1.259 2.813 2.813 2.813s2.813-1.259 2.813-2.813v0-17.804c1.557-2.046 2.496-4.636 2.5-7.445v-0.001zM27.625 29.188c0 0.518-0.42 0.938-0.938 0.938s-0.938-0.42-0.938-0.938v0-17.188h1.875zM30.125 3.938c-0.004 2.327-0.763 4.477-2.045 6.216l0.020-0.029h-2.825c-1.262-1.711-2.021-3.86-2.025-6.187v-2.063h2.5v4.188c0 0.518 0.42 0.938 0.938 0.938s0.938-0.42 0.938-0.938v0-4.188h2.5zM18.438 15.125h-3.125c-1.898 0.002-3.435 1.54-3.438 3.437v12.5c0 0.518 0.42 0.938 0.938 0.938v0h8.125c0.518 0 0.938-0.42 0.938-0.938v0-12.5c-0.002-1.898-1.54-3.435-3.437-3.438h-0zM15.313 17h3.125c0.863 0 1.563 0.7 1.563 1.563v0 7.813h-6.25v-7.813c0-0.863 0.7-1.563 1.563-1.563v0zM13.75 30.125v-1.875h6.25v1.875z"></path>
</symbol>
<symbol id="icon-icon4" viewBox="0 0 32 32">
<path fill="#999998" style="fill: var(--color4, #999998)" d="M29.188 15.875c-0 0-0.001 0-0.001 0-0.661 0-1.268 0.229-1.747 0.611l0.006-0.004-2.3-1.429 2.332-1.449c0.468 0.361 1.063 0.578 1.708 0.578 1.553 0 2.813-1.259 2.813-2.813s-1.259-2.813-2.813-2.813c-1.553 0-2.813 1.259-2.813 2.813 0 0.236 0.029 0.464 0.084 0.683l-0.004-0.019-3.086 1.917-0.346-0.215v-4.204c0-0 0-0 0-0.001 0-5.263-4.267-9.53-9.53-9.53h-0.022c-5.392 0.012-9.759 4.387-9.759 9.781 0 0 0 0 0 0v0 13.358c-2.228 1.258-3.709 3.61-3.711 6.307v2.555h28.825v-3.043c-0.004-3.391-2.508-6.196-5.767-6.672l-0.037-0.004v-6.339l3.421 2.125c-0.044 0.186-0.069 0.4-0.069 0.62 0 1.553 1.259 2.813 2.813 2.813s2.813-1.259 2.813-2.813c0-1.552-1.258-2.811-2.81-2.813h-0zM29.188 10.431c0.518 0 0.938 0.42 0.938 0.938s-0.42 0.938-0.938 0.938c-0.518 0-0.938-0.42-0.938-0.938v0c0-0.518 0.42-0.938 0.938-0.938v0zM1.875 29.446c0.003-2.95 2.394-5.341 5.344-5.345h3.442c0.847 1.298 2.293 2.144 3.936 2.144 0.752 0 1.462-0.177 2.091-0.492l-0.027 0.012c1.1 1.339 2.668 2.258 4.451 2.507l0.037 0.004v1.848h-13.398v-2.723h-1.875v2.723h-4zM8.951 14.188v-4.050h1.592c2.499 0.003 4.524 2.028 4.527 4.527v4.873c-0.238 0.037-0.512 0.058-0.791 0.058-0.023 0-0.046-0-0.069-0l0.004 0c-2.902-0.036-5.262-2.461-5.262-5.406zM14.191 21.468c0.029 0 0.063 0.001 0.097 0.001 0.276 0 0.549-0.015 0.817-0.046l-0.033 0.003c0.014 0.99 0.232 1.927 0.614 2.773l-0.018-0.044c-0.317 0.135-0.687 0.214-1.074 0.214-0.984 0-1.85-0.507-2.351-1.274l-0.007-0.011 0.646-1.753c0.391 0.082 0.842 0.131 1.304 0.137l0.004 0zM26.951 28.957v1.168h-3.929v-5.943c2.253 0.457 3.926 2.421 3.929 4.775v0zM21.146 26.379c-2.405-0.462-4.197-2.547-4.201-5.052v-6.66c-0.004-3.534-2.868-6.398-6.401-6.402h-3.468v5.922c0 0.001 0 0.002 0 0.003 0 2.842 1.621 5.305 3.989 6.516l0.041 0.019-0.552 1.5h-3.336c-0.579 0-1.143 0.068-1.683 0.197l0.049-0.010v-12.632c0-4.35 3.539-7.896 7.888-7.906h0.018c4.228 0 7.655 3.427 7.655 7.655 0 0 0 0 0 0.001v-0 3.040l-1.71-1.063-0.989 1.592 2.699 1.676v11.603zM29.188 19.629c-0.518 0-0.938-0.42-0.938-0.938s0.42-0.938 0.938-0.938c0.518 0 0.938 0.42 0.938 0.938v0c0 0.518-0.42 0.938-0.938 0.938v0z"></path>
</symbol>
<symbol id="icon-insta" viewBox="0 0 32 32">
<path fill="#fff" style="fill: var(--color3, #fff)" d="M4.107 0h23.786c0.030-0.001 0.065-0.001 0.1-0.001 2.214 0 4.009 1.795 4.009 4.009 0 0.035-0 0.070-0.001 0.105l0-0.005v23.786c0.001 0.030 0.001 0.065 0.001 0.1 0 2.214-1.795 4.009-4.009 4.009-0.035 0-0.070-0-0.105-0.001l0.005 0h-23.786c-0.030 0.001-0.065 0.001-0.1 0.001-2.214 0-4.009-1.795-4.009-4.009 0-0.035 0-0.070 0.001-0.105l-0 0.005v-23.786c-0.001-0.030-0.001-0.065-0.001-0.1 0-2.214 1.795-4.009 4.009-4.009 0.035 0 0.070 0 0.105 0.001l-0.005-0zM23.329 3.555c-0.796 0.002-1.441 0.647-1.442 1.442v3.447c0.004 0.795 0.647 1.439 1.442 1.442h3.615c0.794-0.004 1.437-0.648 1.439-1.442v-3.447c0 0 0 0 0 0 0-0.795-0.644-1.441-1.439-1.442h-0zM28.386 13.534h-2.816c0.261 0.821 0.411 1.764 0.411 2.743 0 0 0 0 0 0v0c0 5.323-4.456 9.64-9.949 9.64s-9.946-4.317-9.946-9.64c0-0.001 0-0.002 0-0.003 0-0.978 0.15-1.921 0.429-2.807l-0.018 0.066h-2.941v13.518c0.004 0.702 0.573 1.27 1.275 1.272h22.284c0.702-0.002 1.27-0.57 1.272-1.271v-13.518zM16.031 9.703c-3.549 0-6.427 2.79-6.427 6.243s2.882 6.213 6.427 6.213 6.427-2.773 6.427-6.226-2.878-6.23-6.427-6.23z"></path>
</symbol>
<symbol id="icon-phone" viewBox="0 0 32 32">
<path fill="#6c6259" style="fill: var(--color2, #6c6259)" d="M25.195 0.896c-0.549-0.552-1.308-0.893-2.147-0.893-0.001 0-0.002 0-0.003 0h-14.096c-1.673 0.006-3.028 1.36-3.036 3.032v25.941c0.005 1.675 1.361 3.033 3.036 3.040h14.104c1.674-0.007 3.029-1.362 3.036-3.036v-25.941c-0.001-0.838-0.343-1.595-0.893-2.143l-0-0zM16 29.956c-0.453 0-0.82-0.367-0.82-0.82s0.367-0.82 0.82-0.82c0.453 0 0.82 0.367 0.82 0.82v0c0 0.453-0.367 0.82-0.82 0.82v0zM23.677 24.806c0 1.096-0.889 1.985-1.985 1.985v0h-11.388c-1.096 0-1.985-0.889-1.985-1.985v0-19.332c0-1.096 0.889-1.984 1.985-1.984v0h11.391c1.096 0 1.985 0.888 1.985 1.984v0z"></path>
</symbol>
<symbol id="icon-play" viewBox="0 0 28 32">
<path fill="#fff" style="fill: var(--color3, #fff)" d="M26.524 13.416l-21.999-13.006c-1.787-1.056-4.525-0.031-4.525 2.581v26.007c0 2.344 2.544 3.756 4.525 2.581l21.999-12.999c1.962-1.156 1.969-4.006 0-5.162z"></path>
</symbol>
<symbol id="icon-tw" viewBox="0 0 32 32">
<path fill="#fff" style="fill: var(--color3, #fff)" d="M32 6.078c-1.1 0.494-2.376 0.858-3.712 1.029l-0.068 0.007c1.36-0.816 2.382-2.078 2.873-3.579l0.013-0.046c-1.198 0.722-2.591 1.273-4.076 1.574l-0.084 0.014c-1.2-1.277-2.9-2.072-4.786-2.072-3.623 0-6.56 2.935-6.563 6.557v0c-0 0.021-0 0.045-0 0.070 0 0.505 0.055 0.997 0.161 1.47l-0.008-0.045c-5.454-0.266-10.28-2.88-13.522-6.862-0.564 0.949-0.898 2.092-0.898 3.313 0 2.264 1.146 4.26 2.89 5.44l0.023 0.015c-1.092-0.030-2.109-0.326-2.996-0.824l0.033 0.017v0.072c0.004 3.164 2.237 5.806 5.213 6.438l0.043 0.008c-0.501 0.137-1.075 0.216-1.669 0.216-0.018 0-0.036-0-0.054-0l0.003 0c-0.031 0.001-0.068 0.001-0.104 0.001-0.403 0-0.796-0.041-1.176-0.119l0.037 0.006c0.85 2.598 3.262 4.508 6.13 4.57-2.215 1.745-5.045 2.798-8.121 2.798-0.005 0-0.009 0-0.014 0h0.001c-0.024 0-0.051 0-0.079 0-0.525 0-1.043-0.033-1.551-0.096l0.061 0.006c2.827 1.846 6.287 2.944 10.004 2.944 0.020 0 0.041-0 0.061-0h-0.003c12.072 0 18.672-10 18.672-18.668 0-0.29-0.010-0.57-0.024-0.848 1.3-0.937 2.392-2.066 3.26-3.359l0.030-0.047z"></path>
</symbol>
</defs>
</svg>
